<?xml version="1.0" encoding="UTF-8"?>
<!DOCTYPE svg PUBLIC "-//W3C//DTD SVG 1.0//EN" "http://www.w3.org/TR/2001/REC-SVG-20010904/DTD/svg10.dtd">
<!-- Creator: CorelDRAW X8 -->
<svg xmlns="http://www.w3.org/2000/svg" xml:space="preserve" width="169.376mm" height="84.6767mm" version="1.0" style="shape-rendering:geometricPrecision; text-rendering:geometricPrecision; image-rendering:optimizeQuality; fill-rule:evenodd; clip-rule:evenodd"
viewBox="0 0 16715 8356"
 xmlns:xlink="http://www.w3.org/1999/xlink">
 <defs>
  <style type="text/css">
   <![CDATA[
    .fil3 {fill:#2B2A29;fill-rule:nonzero}
    .fil0 {fill:#233B77;fill-rule:nonzero}
    .fil2 {fill:url(#id0)}
    .fil1 {fill:url(#id1)}
   ]]>
  </style>
  <radialGradient id="id0" gradientUnits="userSpaceOnUse" gradientTransform="matrix(1.75022 -0.0173392 0.0173392 1.75022 -6005 -3548)" cx="7890.93" cy="4911.42" r="7890.93" fx="7890.93" fy="4911.42">
   <stop offset="0" style="stop-opacity:1; stop-color:#C4146E"/>
   <stop offset="1" style="stop-opacity:1; stop-color:#4F1932"/>
  </radialGradient>
  <radialGradient id="id1" gradientUnits="userSpaceOnUse" gradientTransform="matrix(6.65801 -0 -0 6.65801 -43914 -9749)" cx="7761.38" cy="1722.97" r="1148.65" fx="7761.38" fy="1722.97">
   <stop offset="0" style="stop-opacity:1; stop-color:#00A0E3"/>
   <stop offset="1" style="stop-opacity:1; stop-color:#393185"/>
  </radialGradient>
 </defs>
 <g id="Layer_x0020_1">
  <metadata id="CorelCorpID_0Corel-Layer"/>
  <g id="nexus.cdr">
   <g>
    <path class="fil0" d="M10103 7870c58,43 179,86 348,86 271,0 494,-138 494,-409 0,-144 -93,-243 -241,-321 -103,-58 -177,-101 -177,-171 0,-67 63,-128 184,-128 101,-2 187,32 227,54l81 -217c-52,-28 -139,-61 -286,-61 -266,0 -480,150 -480,395 0,159 122,252 252,323 112,58 164,103 164,171 0,96 -92,143 -193,143 -111,0 -214,-35 -286,-78l-87 213zm1786 -666l-433 0 50 -259 458 0 44 -222 -720 0 -231 1215 745 0 41 -221 -485 0 56 -294 433 0 42 -219zm101 734l257 0 91 -479 79 0c103,0 153,45 164,193 13,149 25,254 36,286l267 0c-22,-50 -32,-209 -47,-344 -12,-110 -43,-191 -115,-222l0 -7c155,-51 276,-162 276,-343 0,-113 -56,-191 -136,-238 -84,-52 -203,-70 -319,-70 -121,0 -243,12 -324,32l-229 1192zm450 -1010c22,-5 53,-9 101,-9 103,0 186,44 186,141 0,119 -103,204 -243,204l-109 0 65 -336zm826 -205l-230 1215 259 0 231 -1215 -260 0zm1100 481l-432 0 50 -259 458 0 43 -222 -719 0 -231 1215 745 0 41 -221 -485 0 56 -294 433 0 41 -219zm67 666c58,43 179,86 348,86 271,0 494,-138 494,-409 0,-144 -93,-243 -241,-321 -103,-58 -177,-101 -177,-171 0,-67 63,-128 184,-128 101,-2 188,32 227,54l81 -217c-52,-28 -139,-61 -286,-61 -266,0 -480,150 -480,395 0,159 123,252 252,323 112,58 164,103 164,171 0,96 -91,143 -192,143 -112,0 -215,-35 -287,-78l-87 213z"/>
    <path class="fil1" d="M8206 0c115,512 -221,729 -487,1101 -750,1233 1421,1739 1506,412 22,-288 -131,-591 -340,-856 -183,-232 -419,-453 -679,-657z"/>
    <path class="fil2" d="M3616 2375l-774 3559 -836 0 -717 -1693 -7 0 -441 2281 -841 0 703 -3501 837 0 712 1697 8 0 515 -2343 841 0zm2602 646l-132 626 -1468 0 -97 463 1415 0 -130 590 -1413 0 -123 570 1593 0 -142 664 -2485 0 618 -2913 2364 0zm6105 -2494l-3555 3999 1027 1930 -1247 0 -559 -1133 -2596 3033 -1472 0 3523 -4005 -1042 -1852 1257 0 560 1094 2663 -3066 1441 0zm878 2494l-375 1757c-89,410 -246,714 -472,911 -226,196 -562,295 -1008,295 -247,0 -445,-25 -593,-74 -148,-48 -273,-122 -374,-220 -101,-98 -175,-210 -221,-335 -46,-126 -70,-259 -70,-402 0,-182 19,-356 54,-521l298 -1411 898 0 -348 1639c-15,77 -23,158 -23,245 0,230 135,346 407,346 143,0 265,-44 365,-131 101,-88 177,-257 231,-509l329 -1590 902 0zm2581 809l-837 46c-18,-253 -159,-380 -420,-380 -107,0 -189,23 -246,68 -57,46 -86,101 -86,164 0,47 24,91 69,133 46,41 156,95 328,160 219,85 396,165 533,240 136,76 248,174 335,294 87,121 131,271 131,451 0,170 -48,328 -142,474 -94,146 -230,267 -406,362 -177,94 -428,142 -755,142 -459,0 -785,-89 -977,-266 -192,-178 -288,-406 -288,-684l0 -68 841 -57c0,181 39,310 120,384 79,75 189,113 330,113 142,0 250,-31 324,-94 75,-62 112,-133 112,-212 0,-60 -24,-115 -71,-166 -48,-50 -164,-109 -349,-176 -425,-154 -694,-296 -806,-425 -113,-130 -169,-286 -169,-470 0,-166 46,-318 139,-457 93,-137 228,-244 405,-320 176,-76 388,-114 635,-114 783,0 1200,286 1250,858z"/>
   </g>
   <path id="REGISTER_x0020__x0028_BOLD_x0029_.cdr" class="fil3" d="M16318 2686c110,0 209,45 281,117 71,71 116,170 116,280 0,109 -45,209 -116,280 -72,72 -171,116 -281,116 -109,0 -208,-44 -280,-116 -72,-71 -116,-171 -116,-280 0,-109 44,-209 116,-280 72,-72 171,-117 280,-117zm233 165c-60,-60 -142,-97 -233,-97 -90,0 -173,37 -232,97 -60,59 -96,141 -96,232 0,91 36,173 96,232 59,60 142,97 232,97 91,0 173,-37 233,-97 59,-59 96,-141 96,-232 0,-91 -37,-173 -96,-232zm-81 353l0 90c-20,12 -43,21 -68,27 -25,6 -53,9 -82,9 -69,0 -125,-22 -167,-66 -43,-44 -64,-102 -64,-173 0,-72 22,-131 66,-176 44,-46 100,-69 168,-69 25,0 49,3 73,8 23,5 46,13 67,23l0 83c-20,-13 -40,-23 -61,-30 -21,-6 -42,-10 -64,-10 -50,0 -91,16 -121,48 -30,31 -46,73 -46,125 0,47 16,85 46,116 31,31 69,47 115,47 23,0 46,-5 68,-13 23,-8 46,-21 70,-39z"/>
  </g>
 </g>
</svg>
